<?xml version="1.0" standalone="no"?>
<!DOCTYPE svg PUBLIC "-//W3C//DTD SVG 20010904//EN"
 "http://www.w3.org/TR/2001/REC-SVG-20010904/DTD/svg10.dtd">
<svg version="1.0" xmlns="http://www.w3.org/2000/svg"
 width="167.000000pt" height="64.000000pt" viewBox="0 0 167.000000 64.000000"
 preserveAspectRatio="xMidYMid meet">

<g transform="translate(0.000000,64.000000) scale(0.100000,-0.100000)"
fill="#000000" stroke="none">
<path d="M575 520 c0 -56 3 -70 15 -70 12 0 14 13 12 70 -5 96 -27 96 -27 0z"/>
<path d="M98 573 c7 -3 16 -2 19 1 4 3 -2 6 -13 5 -11 0 -14 -3 -6 -6z"/>
<path d="M52 558 c-21 -21 -15 -75 10 -92 12 -9 29 -16 38 -15 9 0 6 4 -8 9
-33 14 -47 57 -27 86 16 25 8 33 -13 12z"/>
<path d="M176 514 c-9 -8 -16 -19 -16 -24 0 -15 31 -40 48 -39 12 0 10 3 -6
10 -30 11 -27 54 3 54 14 0 21 -8 23 -28 4 -30 22 -27 22 3 0 18 -27 40 -49
40 -5 0 -17 -7 -25 -16z"/>
<path d="M278 523 c6 -2 12 -17 12 -33 0 -16 -6 -31 -12 -33 -7 -3 -4 -6 7 -6
18 -1 20 4 17 39 -3 29 -8 40 -21 39 -10 0 -11 -2 -3 -6z"/>
<path d="M338 519 c6 -7 12 -23 12 -35 0 -12 -6 -25 -12 -27 -7 -3 -4 -6 8 -6
19 -1 20 3 15 36 -3 20 -13 38 -21 41 -12 4 -13 2 -2 -9z"/>
<path d="M395 490 c0 -30 4 -40 16 -40 13 0 15 7 10 37 -8 50 -26 52 -26 3z"/>
<path d="M458 523 c7 -3 12 -25 12 -58 0 -33 -5 -55 -12 -58 -7 -3 1 -5 17 -5
17 0 24 2 18 5 -25 10 -14 40 16 46 33 7 49 40 31 62 -18 22 -32 18 -19 -4 16
-24 5 -51 -21 -51 -16 0 -20 6 -20 35 0 27 -4 35 -17 34 -11 0 -13 -3 -5 -6z"/>
<path d="M635 490 c0 -29 4 -40 15 -40 12 0 15 9 12 40 -2 22 -9 40 -16 40 -6
0 -11 -17 -11 -40z"/>
<path d="M735 516 l20 -15 -20 -1 c-12 0 -16 -3 -9 -8 6 -4 13 -15 17 -24 12
-32 24 -19 18 19 -5 27 -12 39 -26 41 -20 4 -20 4 0 -12z"/>
<path d="M798 523 c6 -2 12 -17 12 -33 0 -16 -6 -31 -12 -33 -7 -3 -4 -6 7 -6
18 -1 20 4 17 39 -3 29 -8 40 -21 39 -10 0 -11 -2 -3 -6z"/>
<path d="M855 490 c0 -30 4 -40 16 -40 13 0 15 7 10 37 -8 50 -26 52 -26 3z"/>
<path d="M1056 515 c18 -14 18 -14 -9 -15 -20 0 -26 4 -21 13 4 6 -1 5 -10 -4
-16 -15 -13 -49 5 -49 4 0 6 7 3 15 -5 11 1 15 25 15 33 0 44 23 15 34 -26 10
-29 7 -8 -9z"/>
<path d="M920 501 c-12 -23 10 -51 38 -50 12 0 10 3 -7 10 -18 7 -22 15 -19
34 6 30 2 32 -12 6z"/>
<path d="M696 481 c-5 -8 -3 -17 5 -22 17 -11 39 -12 23 -1 -6 4 -13 14 -16
22 -3 11 -6 11 -12 1z"/>
<path d="M1048 453 c7 -3 16 -2 19 1 4 3 -2 6 -13 5 -11 0 -14 -3 -6 -6z"/>
<path d="M98 343 c7 -3 16 -2 19 1 4 3 -2 6 -13 5 -11 0 -14 -3 -6 -6z"/>
<path d="M52 328 c-21 -21 -15 -75 10 -92 12 -9 29 -16 38 -15 9 0 6 4 -8 9
-33 14 -47 57 -27 86 16 25 8 33 -13 12z"/>
<path d="M1167 333 c-15 -15 -5 -44 18 -55 15 -7 25 -20 25 -32 0 -14 3 -17
11 -9 16 16 2 48 -27 62 -17 7 -24 17 -20 26 6 16 3 19 -7 8z"/>
<path d="M1347 327 c-3 -9 -3 -17 2 -17 5 0 11 -9 14 -20 4 -16 0 -20 -21 -21
-26 -1 -26 -2 3 -8 20 -4 30 -12 29 -24 -1 -10 5 -17 16 -17 17 0 17 2 1 38
-10 20 -22 48 -27 61 -9 21 -11 22 -17 8z"/>
<path d="M1497 333 c-15 -15 -5 -44 18 -55 15 -7 25 -20 25 -32 0 -14 3 -17
11 -9 16 16 2 48 -27 62 -17 7 -24 17 -20 26 6 16 3 19 -7 8z"/>
<path d="M774 303 c-7 -2 -8 -18 -5 -41 5 -27 12 -37 26 -39 11 -2 14 0 8 3
-16 7 -17 61 -1 66 8 3 7 6 -3 10 -7 3 -19 3 -25 1z"/>
<path d="M176 284 c-9 -8 -16 -19 -16 -24 0 -15 31 -40 48 -39 12 0 10 3 -6
10 -30 11 -27 54 3 54 14 0 21 -8 23 -28 4 -30 22 -27 22 3 0 18 -27 40 -49
40 -5 0 -17 -7 -25 -16z"/>
<path d="M278 288 c16 -16 15 -55 0 -61 -7 -3 1 -5 17 -5 17 0 24 2 18 5 -7 2
-13 20 -13 39 0 25 -4 34 -17 34 -13 0 -14 -3 -5 -12z"/>
<path d="M358 293 c7 -3 12 -25 13 -56 1 -29 3 -45 6 -36 2 9 17 19 33 22 32
7 48 40 30 62 -18 22 -32 18 -19 -4 16 -24 5 -51 -21 -51 -16 0 -20 6 -20 35
0 27 -4 35 -17 34 -11 0 -13 -3 -5 -6z"/>
<path d="M486 284 c-9 -8 -16 -19 -16 -24 0 -15 31 -40 48 -39 12 0 10 3 -6
10 -30 11 -27 54 3 54 14 0 21 -8 23 -28 4 -30 22 -27 22 3 0 18 -27 40 -49
40 -5 0 -17 -7 -25 -16z"/>
<path d="M588 288 c16 -16 15 -55 0 -61 -7 -3 1 -5 17 -5 17 0 24 2 18 5 -7 2
-13 20 -13 39 0 25 -4 34 -17 34 -13 0 -14 -3 -5 -12z"/>
<path d="M705 286 l20 -15 -20 -1 c-12 0 -16 -3 -9 -8 6 -4 13 -15 17 -24 12
-32 24 -19 18 19 -5 27 -12 39 -26 41 -20 4 -20 4 0 -12z"/>
<path d="M835 260 c0 -29 4 -40 15 -40 12 0 15 9 12 40 -2 22 -9 40 -16 40 -6
0 -11 -17 -11 -40z"/>
<path d="M907 265 c9 -19 20 -35 25 -35 12 0 9 12 -7 34 -8 10 -12 23 -9 27 3
5 -2 9 -10 9 -14 0 -14 -4 1 -35z"/>
<path d="M1006 284 c-9 -8 -16 -19 -16 -24 0 -15 31 -40 48 -39 12 0 10 3 -6
10 -30 11 -27 54 3 54 14 0 21 -8 23 -28 4 -30 22 -27 22 3 0 18 -27 40 -49
40 -5 0 -17 -7 -25 -16z"/>
<path d="M666 251 c-5 -8 -3 -17 5 -22 17 -11 39 -12 23 -1 -6 4 -13 14 -16
22 -3 11 -6 11 -12 1z"/>
<path d="M1178 223 c7 -3 16 -2 19 1 4 3 -2 6 -13 5 -11 0 -14 -3 -6 -6z"/>
<path d="M1298 223 c7 -3 16 -2 19 1 4 3 -2 6 -13 5 -11 0 -14 -3 -6 -6z"/>
<path d="M1508 223 c7 -3 16 -2 19 1 4 3 -2 6 -13 5 -11 0 -14 -3 -6 -6z"/>
</g>
</svg>
